<svg xmlns="http://www.w3.org/2000/svg" width="26.333" height="20.162" viewBox="0 0 26.333 20.162">
  <g id="email" transform="translate(0 -60)">
    <path id="Path_149" data-name="Path 149" d="M0,60V80.161H26.333V60ZM7.711,70.081,1.543,76.249V63.912ZM2.221,77.753,8.8,71.172l1.637,1.637a3.857,3.857,0,0,0,5.455,0l1.637-1.637,6.582,6.582a2.306,2.306,0,0,1,.547.865H1.674A2.306,2.306,0,0,1,2.221,77.753Zm16.4-7.673,6.168-6.168V76.249Zm5.491-7.673L14.8,71.717a2.315,2.315,0,0,1-3.273,0L2.221,62.408a2.306,2.306,0,0,1-.547-.865H24.659A2.305,2.305,0,0,1,24.113,62.408Z" fill="#2159c8"/>
    <path id="Path_150" data-name="Path 150" d="M241,120h1.543v1.543H241Z" transform="translate(-228.605 -56.914)" fill="#2159c8"/>
    <path id="Path_151" data-name="Path 151" d="M301,120h1.543v1.543H301Z" transform="translate(-285.519 -56.914)" fill="#2159c8"/>
    <path id="Path_152" data-name="Path 152" d="M181,120h1.543v1.543H181Z" transform="translate(-171.691 -56.914)" fill="#2159c8"/>
  </g>
</svg>
