<svg xmlns="http://www.w3.org/2000/svg" width="29.487" height="29.513" viewBox="0 0 29.487 29.513">
  <g id="home" transform="translate(-0.208 0)">
    <g id="Group_17" data-name="Group 17" transform="translate(0.208 0)">
      <path id="Path_45" data-name="Path 45" d="M29.4,14.01,27.292,11.9,15.7.308a1.054,1.054,0,0,0-1.49,0L2.612,11.9.5,14.011a1.054,1.054,0,0,0,1.49,1.49l.308-.31V28.459a1.054,1.054,0,0,0,1.054,1.054h23.19A1.054,1.054,0,0,0,27.6,28.459V15.192l.309.309A1.054,1.054,0,0,0,29.4,14.01ZM18.113,27.4H11.789V18.972h6.324Zm7.379,0h-5.27V17.918a1.054,1.054,0,0,0-1.054-1.054H10.735a1.054,1.054,0,0,0-1.054,1.054V27.4H4.41V13.084L14.951,2.543,25.492,13.084Z" transform="translate(-0.208 0)" fill="#2159c8"/>
    </g>
  </g>
</svg>
