<svg id="linked-in-logo-of-two-letters" xmlns="http://www.w3.org/2000/svg" width="30.095" height="27.491" viewBox="0 0 30.095 27.491">
  <g id="Group_14" data-name="Group 14" transform="translate(0 0)">
    <path id="Path_42" data-name="Path 42" d="M.977,197.905H4.89a.977.977,0,0,0,.977-.977v-17.1a.977.977,0,0,0-.977-.977H.977a.977.977,0,0,0-.977.977v17.1A.977.977,0,0,0,.977,197.905Z" transform="translate(0 -170.415)" fill="#828282"/>
    <path id="Path_43" data-name="Path 43" d="M.977,29.345H4.89a.977.977,0,0,0,.977-.977V24.893a.977.977,0,0,0-.977-.977H.977A.977.977,0,0,0,0,24.893v3.474A.977.977,0,0,0,.977,29.345Z" transform="translate(0 -23.916)" fill="#828282"/>
    <path id="Path_44" data-name="Path 44" d="M200.283,172.13a5.949,5.949,0,0,0-2.432-1.785,8.807,8.807,0,0,0-3.55-.7,8.693,8.693,0,0,0-6.68,3.009c-.363.4-.627.312-.627-.228v-1.3a.977.977,0,0,0-.977-.977h-3.495a.977.977,0,0,0-.977.977v17.1a.977.977,0,0,0,.977.977h3.912a.977.977,0,0,0,.977-.977v-5.947a19.134,19.134,0,0,1,.449-5.095,4.207,4.207,0,0,1,1.66-2.213,4.7,4.7,0,0,1,2.735-.835,3.491,3.491,0,0,1,2.036.585,3.258,3.258,0,0,1,1.221,1.639,17.485,17.485,0,0,1,.376,4.646v7.221a.977.977,0,0,0,.977.977h3.912a.977.977,0,0,0,.977-.977V178.54a18.34,18.34,0,0,0-.323-3.946A6.463,6.463,0,0,0,200.283,172.13Z" transform="translate(-171.66 -161.711)" fill="#828282"/>
  </g>
</svg>
