<svg xmlns="http://www.w3.org/2000/svg" width="45.416" height="38.19" viewBox="0 0 45.416 38.19">
  <g id="menu" transform="translate(0)" opacity="0.53">
    <path id="Path_542" data-name="Path 542" d="M43.523,127.075H1.892a2.229,2.229,0,0,1,0-4.407H43.523a2.229,2.229,0,0,1,0,4.407Zm0,0" transform="translate(0 -105.776)"/>
    <path id="Path_543" data-name="Path 543" d="M43.523,4.407H1.892A2.066,2.066,0,0,1,0,2.2,2.066,2.066,0,0,1,1.892,0H43.523a2.066,2.066,0,0,1,1.892,2.2A2.066,2.066,0,0,1,43.523,4.407Zm0,0" transform="translate(0)"/>
    <path id="Path_544" data-name="Path 544" d="M43.523,249.739H1.892a2.229,2.229,0,0,1,0-4.407H43.523a2.229,2.229,0,0,1,0,4.407Zm0,0" transform="translate(0 -211.548)"/>
  </g>
</svg>
