<svg xmlns="http://www.w3.org/2000/svg" width="27.487" height="27.487" viewBox="0 0 27.487 27.487">
  <g id="phone" transform="translate(0)">
    <path id="Path_46" data-name="Path 46" d="M19.755,27.487a7.658,7.658,0,0,1-2.627-.469A28.017,28.017,0,0,1,6.955,20.533,28.015,28.015,0,0,1,.47,10.36,7.6,7.6,0,0,1,.082,6.623,7.8,7.8,0,0,1,4.089.915,7.654,7.654,0,0,1,7.754,0a.859.859,0,0,1,.84.679L9.942,6.971a.859.859,0,0,1-.233.787l-2.3,2.3a22.61,22.61,0,0,0,10.02,10.02l2.3-2.3a.859.859,0,0,1,.787-.233l6.292,1.348a.859.859,0,0,1,.679.84,7.654,7.654,0,0,1-.916,3.665,7.8,7.8,0,0,1-5.707,4.007A7.641,7.641,0,0,1,19.755,27.487ZM7.067,1.755A6.019,6.019,0,0,0,2.084,9.773,26.053,26.053,0,0,0,17.715,25.4a6.019,6.019,0,0,0,8.018-4.983l-5.118-1.1L18.208,21.73a.859.859,0,0,1-.973.17A24.322,24.322,0,0,1,5.588,10.252a.859.859,0,0,1,.17-.973L8.164,6.874Z" transform="translate(0 0)" fill="#2159c8"/>
    <path id="Path_47" data-name="Path 47" d="M253.763,14.6a.859.859,0,0,1-.859-.859A12.039,12.039,0,0,0,240.879,1.718a.859.859,0,1,1,0-1.718,13.743,13.743,0,0,1,13.743,13.743A.859.859,0,0,1,253.763,14.6Z" transform="translate(-227.134)" fill="#2159c8"/>
    <path id="Path_48" data-name="Path 48" d="M250.327,75.166a.859.859,0,0,1-.859-.859,8.6,8.6,0,0,0-8.589-8.589.859.859,0,1,1,0-1.718,10.319,10.319,0,0,1,10.307,10.307A.859.859,0,0,1,250.327,75.166Z" transform="translate(-227.134 -60.564)" fill="#2159c8"/>
    <path id="Path_49" data-name="Path 49" d="M246.892,135.73a.859.859,0,0,1-.859-.859,5.159,5.159,0,0,0-5.154-5.154.859.859,0,1,1,0-1.718,6.879,6.879,0,0,1,6.872,6.872A.859.859,0,0,1,246.892,135.73Z" transform="translate(-227.134 -121.128)" fill="#2159c8"/>
  </g>
</svg>
