<svg xmlns="http://www.w3.org/2000/svg" width="39.09" height="39.09" viewBox="0 0 39.09 39.09">
  <g id="user_1_" data-name="user (1)" transform="translate(0.5 0.5)" opacity="0.53">
    <g id="Group_280" data-name="Group 280" transform="translate(0)">
      <path id="Path_545" data-name="Path 545" d="M32.512,24.623a18.972,18.972,0,0,0-7.237-4.539,11.011,11.011,0,1,0-12.46,0A19.075,19.075,0,0,0,0,38.09H2.976a16.069,16.069,0,0,1,32.139,0H38.09A18.921,18.921,0,0,0,32.512,24.623ZM19.045,19.045a8.035,8.035,0,1,1,8.035-8.035A8.044,8.044,0,0,1,19.045,19.045Z" transform="translate(0)" stroke="#000" stroke-width="1"/>
    </g>
  </g>
</svg>
